# xmcd
#
# Track frame offsets: 
#        150
#        12745
#        29070
#        48927
#        64015
#        78840
#        97354
#        110226
#        125605
#        148166
#        157854
#        169768
#        180751
#        192680
#
# Disc length: 2822 seconds
#
# Revision: 0
# Processed by: cddbd v1.5.2PL0 Copyright (c) Steve Scherf et al.
# Submitted via: ExactAudioCopy v0.95b4
#
DISCID=c90b040e
DTITLE=The Pigs - Horses
DYEAR=2009
DGENRE=Alternative
TTITLE0=Single Ladies (Put A Ring On It) 
TTITLE1=Hey Christina
TTITLE2=Macho Moisturiser
TTITLE3=Ignition Remix
TTITLE4=Morning Movement
TTITLE5=Killing In The Name
TTITLE6=The Machines Are Singing To You
TTITLE7=Little Bob Dreams
TTITLE8=O The Gambler
TTITLE9=Usin' Up Air
TTITLE10=Push It!
TTITLE11=Have You Ever?
TTITLE12=At The Mall
TTITLE13=Pump Up The Jam - Where's Your Head At - One More Time
EXTD=
EXTT0=
EXTT1=
EXTT2=
EXTT3=
EXTT4=
EXTT5=
EXTT6=
EXTT7=
EXTT8=
EXTT9=
EXTT10=
EXTT11=
EXTT12=
EXTT13=
PLAYORDER=
